<svg width="20" height="20" viewBox="0 0 20 20" fill="none" xmlns="http://www.w3.org/2000/svg">
<path d="M7 15H19V17H7V15ZM7 9H19V11H7V9ZM7 3H19V5H7V3Z" fill="white"/>
<path d="M3 6C4.10457 6 5 5.10457 5 4C5 2.89543 4.10457 2 3 2C1.89543 2 1 2.89543 1 4C1 5.10457 1.89543 6 3 6Z" fill="white"/>
<path d="M3 12C4.10457 12 5 11.1046 5 10C5 8.89543 4.10457 8 3 8C1.89543 8 1 8.89543 1 10C1 11.1046 1.89543 12 3 12Z" fill="white"/>
<path d="M3 18C4.10457 18 5 17.1046 5 16C5 14.8954 4.10457 14 3 14C1.89543 14 1 14.8954 1 16C1 17.1046 1.89543 18 3 18Z" fill="white"/>
</svg>
