<svg width="88" height="31" viewBox="0 0 88 31" fill="none" xmlns="http://www.w3.org/2000/svg">
<rect x="0.5" y="0.5" width="87" height="30" rx="3.5" fill="#F7F7F8" stroke="#D9D9D9"/>
<path d="M12.5783 22.1562L18.7344 16L11.0821 8.34813L12.5783 6.85196L21.7264 16L12.5783 25.1481L3.43018 16L4.92609 14.5041L12.5783 22.1562Z" fill="#22DDFF"/>
<path d="M17.422 6.85188L18.9182 8.34806L11.2659 16L17.422 22.1561L23.5782 16L21.1563 13.578L18.7307 16.0037L17.2383 14.5043L21.1542 10.5882L21.1563 10.5903L21.1584 10.5882L26.5701 16L17.422 25.1481L8.27393 16L17.422 6.85188Z" fill="#FFDD22"/>
<path d="M16.4961 10.7699L15 9.27382L13.5039 10.7699L15 12.266L16.4961 10.7699Z" fill="#22DDFF"/>
<path d="M63.2775 14.14C64.3075 14.14 65.1775 13.74 65.6775 13.25V9.91H63.0475V11.12H64.3575V12.58C64.1475 12.76 63.7875 12.86 63.4275 12.86C61.9775 12.86 61.2375 11.89 61.2375 10.28C61.2375 8.69 62.0975 7.73 63.3275 7.73C63.9975 7.73 64.4175 8 64.7775 8.35L65.5675 7.41C65.0875 6.92 64.3475 6.46 63.2775 6.46C61.3075 6.46 59.7275 7.89 59.7275 10.33C59.7275 12.8 61.2575 14.14 63.2775 14.14ZM70.7855 14.14C71.7455 14.14 72.5355 13.76 73.1455 13.05L72.3655 12.13C71.9655 12.56 71.4655 12.86 70.8355 12.86C69.6655 12.86 68.9055 11.89 68.9055 10.28C68.9055 8.69 69.7455 7.73 70.8655 7.73C71.4255 7.73 71.8555 7.99 72.2255 8.35L73.0055 7.41C72.5255 6.91 71.7755 6.46 70.8355 6.46C68.9655 6.46 67.3955 7.89 67.3955 10.33C67.3955 12.8 68.9155 14.14 70.7855 14.14ZM75.4596 14H77.2696L78.0796 10.34C78.1996 9.76 78.2996 9.19 78.3996 8.63H78.4396C78.5296 9.19 78.6396 9.76 78.7596 10.34L79.5896 14H81.4296L82.7996 6.6H81.3896L80.8096 10.21C80.6996 10.98 80.5896 11.77 80.4796 12.57H80.4296C80.2696 11.77 80.1196 10.97 79.9596 10.21L79.0996 6.6H77.8396L76.9796 10.21C76.8196 10.98 76.6596 11.78 76.5096 12.57H76.4696C76.3596 11.78 76.2396 10.99 76.1296 10.21L75.5396 6.6H74.0296L75.4596 14ZM28.9823 25H30.3123V21.91C30.3123 21.21 30.1923 20.18 30.1223 19.48H30.1623L30.7523 21.22L31.9023 24.33H32.7523L33.8923 21.22L34.4923 19.48H34.5323C34.4623 20.18 34.3523 21.21 34.3523 21.91V25H35.7023V17.6H34.0623L32.8323 21.06C32.6723 21.52 32.5423 22.01 32.3823 22.49H32.3323C32.1823 22.01 32.0423 21.52 31.8823 21.06L30.6223 17.6H28.9823V25ZM40.3274 25.14C41.0274 25.14 41.7374 24.9 42.2874 24.52L41.7874 23.62C41.3874 23.87 40.9874 24.01 40.5274 24.01C39.6974 24.01 39.0974 23.53 38.9774 22.61H42.4274C42.4674 22.48 42.4974 22.21 42.4974 21.94C42.4974 20.39 41.6974 19.26 40.1574 19.26C38.8174 19.26 37.5474 20.39 37.5474 22.21C37.5474 24.05 38.7674 25.14 40.3274 25.14ZM38.9574 21.64C39.0674 20.82 39.5874 20.4 40.1774 20.4C40.8974 20.4 41.2374 20.88 41.2374 21.64H38.9574ZM46.178 25.14C46.758 25.14 47.318 24.82 47.728 24.42H47.758L47.878 25H49.068V17.02H47.598V18.99L47.658 19.87C47.258 19.5 46.868 19.26 46.238 19.26C45.028 19.26 43.888 20.38 43.888 22.21C43.888 24.04 44.788 25.14 46.178 25.14ZM46.558 23.93C45.818 23.93 45.398 23.35 45.398 22.19C45.398 21.07 45.928 20.47 46.558 20.47C46.908 20.47 47.258 20.58 47.598 20.89V23.35C47.278 23.77 46.948 23.93 46.558 23.93ZM51.1435 25H52.6035V19.4H51.1435V25ZM51.8835 18.5C52.3835 18.5 52.7535 18.16 52.7535 17.7C52.7535 17.22 52.3835 16.9 51.8835 16.9C51.3735 16.9 51.0035 17.22 51.0035 17.7C51.0035 18.16 51.3735 18.5 51.8835 18.5ZM56.0606 25.14C56.7006 25.14 57.2606 24.82 57.7506 24.4H57.7806L57.8906 25H59.0906V21.73C59.0906 20.11 58.3606 19.26 56.9406 19.26C56.0606 19.26 55.2606 19.59 54.6006 20L55.1306 20.97C55.6506 20.67 56.1506 20.44 56.6706 20.44C57.3606 20.44 57.6006 20.86 57.6206 21.41C55.3706 21.65 54.4006 22.28 54.4006 23.48C54.4006 24.43 55.0606 25.14 56.0606 25.14ZM56.5406 23.99C56.1106 23.99 55.8006 23.8 55.8006 23.36C55.8006 22.86 56.2606 22.49 57.6206 22.31V23.44C57.2706 23.79 56.9606 23.99 56.5406 23.99ZM61.8307 25H63.6407L64.4507 21.34C64.5707 20.76 64.6707 20.19 64.7707 19.63H64.8107C64.9007 20.19 65.0107 20.76 65.1307 21.34L65.9607 25H67.8007L69.1707 17.6H67.7607L67.1807 21.21C67.0707 21.98 66.9607 22.77 66.8507 23.57H66.8007C66.6407 22.77 66.4907 21.97 66.3307 21.21L65.4707 17.6H64.2107L63.3507 21.21C63.1907 21.98 63.0307 22.78 62.8807 23.57H62.8407C62.7307 22.78 62.6107 21.99 62.5007 21.21L61.9107 17.6H60.4007L61.8307 25ZM70.6611 25H72.1211V19.4H70.6611V25ZM71.4011 18.5C71.9011 18.5 72.2711 18.16 72.2711 17.7C72.2711 17.22 71.9011 16.9 71.4011 16.9C70.8911 16.9 70.5211 17.22 70.5211 17.7C70.5211 18.16 70.8911 18.5 71.4011 18.5ZM74.1982 25H75.6282V23.6L76.4382 22.68L77.7982 25H79.3882L77.2682 21.69L79.2082 19.4H77.6082L75.6682 21.82H75.6282V17.02H74.1982V25ZM80.7529 25H82.2129V19.4H80.7529V25ZM81.4929 18.5C81.9929 18.5 82.3629 18.16 82.3629 17.7C82.3629 17.22 81.9929 16.9 81.4929 16.9C80.9829 16.9 80.6129 17.22 80.6129 17.7C80.6129 18.16 80.9829 18.5 81.4929 18.5Z" fill="#1A51B6"/>
</svg>
