<svg width="20" height="21" viewBox="0 0 20 21" fill="none" xmlns="http://www.w3.org/2000/svg">
<g clip-path="url(#clip0_4_7)">
<path d="M16 7.25029C15.8993 6.06186 15.4066 4.94057 14.5993 4.06266C13.792 3.18475 12.7158 2.59999 11.54 2.40029C11.6 1.71029 11.53 0.25029 10 0.25029C8.47 0.25029 8.4 1.71029 8.46 2.40029C7.28415 2.59999 6.208 3.18475 5.40068 4.06266C4.59337 4.94057 4.10066 6.06186 4 7.25029V13.2503L2 15.2503V16.2503H18V15.2503L16 13.2503V7.25029ZM10 20.2503C10.7956 20.2503 11.5587 19.9342 12.1213 19.3716C12.6839 18.809 13 18.0459 13 17.2503H7C7 18.0459 7.31607 18.809 7.87868 19.3716C8.44129 19.9342 9.20435 20.2503 10 20.2503Z" fill="#22DDFF"/>
</g>
<defs>
<clipPath id="clip0_4_7">
<rect width="20" height="20" fill="white" transform="translate(0 0.25029)"/>
</clipPath>
</defs>
</svg>
