<svg width="1024" height="768" viewBox="0 0 1024 768" fill="none" xmlns="http://www.w3.org/2000/svg">
<g clip-path="url(#clip0_550_7850)">
<path d="M897 454.6V313.4L810.4 299C804 275.7 794.4 253.3 783.1 233.2L833.6 161.8L734.2 61.6L662.8 112.1C641.9 100.9 620.3 91.2 597 84.8L582.6 -1H441.4L427 85.6C403.7 92 381.3 101.6 361.2 112.9L289.8 62.4L189.5 161.9L240 233.3C228.8 254.2 219.1 275.8 212.7 299.9L127 313.4V454.6L212.8 469C219.2 492.3 228.8 514.7 240.1 535.6L189.6 607L289.1 706.5L360.5 656C381.4 667.2 403 676.9 427.1 683.3L441.5 769.1H582.7L597.1 682.5C620.4 676.1 642.8 666.5 662.9 655.2L734.3 705.7L833.8 606.2L783.3 534.8C794.5 513.9 804.2 492.3 810.6 468.2L897 454.6V454.6ZM512 531.6C430.2 531.6 364.4 465 364.4 384C364.4 302.2 431 236.4 512 236.4C593 236.4 659.6 302.2 659.6 384C659.6 465.8 593.8 531.6 512 531.6Z" fill="#1E1E1E"/>
</g>
<defs>
<clipPath id="clip0_550_7850">
<rect width="1024" height="768" fill="white"/>
</clipPath>
</defs>
</svg>
